2025-01-29 16:43:38,690 - INFO - ------------  model_cnnLSTM , num_layers = 1, hidden_size=64 seq_num = 80, gap = 3, --------------
2025-01-29 16:45:21,815 - INFO - trained model on franka_main/trained_models/contact_localization/62/, tested on franka_main, with 7 links
2025-01-29 16:46:32,692 - INFO - numLayer1_hiddenSize64_seq_num80_gap3_accuracy91.68, total samples: 3968
2025-01-29 16:46:32,693 - INFO - 
 [[596   0   0   0   0   0   0]
 [  0 639   0   0   5   0   0]
 [  0   0 534   0   0   0   0]
 [  0   0   5 468   0   0   0]
 [  0   0   0   0 554  63  36]
 [  0   0   0   0   0 601   0]
 [  0   0   0   0   0   0 467]]
2025-01-29 16:46:32,698 - INFO - 
               precision    recall  f1-score   support

           1       1.00      1.00      1.00       596
           2       1.00      0.99      1.00       644
           3       0.99      1.00      1.00       534
           4       1.00      0.99      0.99       473
           5       0.99      0.85      0.91       653
           6       0.91      1.00      0.95       601
           7       0.93      1.00      0.96       467

    accuracy                           0.97      3968
   macro avg       0.97      0.98      0.97      3968
weighted avg       0.97      0.97      0.97      3968

2025-01-29 16:46:32,702 - INFO - numLayer1_hiddenSize64_seq_num100_gap3_accuracy80.91, total samples: 3969
2025-01-29 16:46:32,703 - INFO - 
 [[454 117   0   0  12   0   0]
 [  0 646   0   0   0   0   0]
 [  0   0 523   0  11   0   0]
 [  0   0   0 484   0   0   0]
 [  0   0   0  12 381  21 238]
 [  0   0   0   0   0 601   0]
 [  0   0   0   0   0   0 469]]
2025-01-29 16:46:32,708 - INFO - 
               precision    recall  f1-score   support

           1       1.00      0.78      0.88       583
           2       0.85      1.00      0.92       646
           3       1.00      0.98      0.99       534
           4       0.98      1.00      0.99       484
           5       0.94      0.58      0.72       652
           6       0.97      1.00      0.98       601
           7       0.66      1.00      0.80       469

    accuracy                           0.90      3969
   macro avg       0.91      0.91      0.90      3969
weighted avg       0.92      0.90      0.89      3969

2025-01-29 16:46:32,712 - INFO - numLayer1_hiddenSize64_seq_num80_gap5_accuracy91.13, total samples: 3969
2025-01-29 16:46:32,712 - INFO - 
 [[590   0   0   0   0   3   0]
 [  0 625   0   9  13   0   0]
 [  0   0 534   0   0   0   0]
 [  0   0  82 390   7   0   0]
 [  0   0   0   0 657   0   0]
 [  0   0   0   0   0 601   0]
 [  0   0   0   0   0   4 454]]
2025-01-29 16:46:32,718 - INFO - 
               precision    recall  f1-score   support

           1       1.00      0.99      1.00       593
           2       1.00      0.97      0.98       647
           3       0.87      1.00      0.93       534
           4       0.98      0.81      0.89       479
           5       0.97      1.00      0.99       657
           6       0.99      1.00      0.99       601
           7       1.00      0.99      1.00       458

    accuracy                           0.97      3969
   macro avg       0.97      0.97      0.97      3969
weighted avg       0.97      0.97      0.97      3969

2025-01-29 16:46:32,722 - INFO - numLayer1_hiddenSize64_seq_num100_gap5_accuracy91.85, total samples: 3976
2025-01-29 16:46:32,723 - INFO - 
 [[586   0   0   0   0   0   0]
 [  0 646   0   0   0   0   0]
 [  0   0 534   0   0   0   0]
 [  0   0   0 485   0   0   0]
 [  0   0   0  13 636   8   0]
 [  0   0   0   0  18 581   0]
 [  0   0   0   0   0   0 469]]
2025-01-29 16:46:32,728 - INFO - 
               precision    recall  f1-score   support

           1       1.00      1.00      1.00       586
           2       1.00      1.00      1.00       646
           3       1.00      1.00      1.00       534
           4       0.97      1.00      0.99       485
           5       0.97      0.97      0.97       657
           6       0.99      0.97      0.98       599
           7       1.00      1.00      1.00       469

    accuracy                           0.99      3976
   macro avg       0.99      0.99      0.99      3976
weighted avg       0.99      0.99      0.99      3976

2025-01-29 16:46:32,731 - INFO - numLayer1_hiddenSize128_seq_num80_gap3_accuracy91.60, total samples: 3981
2025-01-29 16:46:32,732 - INFO - 
 [[595   0   0   0   0   0   0]
 [  0 647   6   0   0   0   0]
 [  0   0 534   0   0   0   0]
 [  0   0  24 452   2   0   0]
 [  0   0   0  17 631   9   0]
 [  0   0   0   0   0 601   0]
 [  0   0   0   0   0   2 461]]
2025-01-29 16:46:32,738 - INFO - 
               precision    recall  f1-score   support

           1       1.00      1.00      1.00       595
           2       1.00      0.99      1.00       653
           3       0.95      1.00      0.97       534
           4       0.96      0.95      0.95       478
           5       1.00      0.96      0.98       657
           6       0.98      1.00      0.99       601
           7       1.00      1.00      1.00       463

    accuracy                           0.98      3981
   macro avg       0.98      0.98      0.98      3981
weighted avg       0.99      0.98      0.98      3981

2025-01-29 16:46:32,742 - INFO - numLayer1_hiddenSize128_seq_num100_gap3_accuracy91.61, total samples: 3960
2025-01-29 16:46:32,742 - INFO - 
 [[586   0   0   0   0   0   0]
 [  0 645   0   0   0   0   0]
 [  0   0 534   0   0   0   0]
 [  0   0   0 458  20   0   0]
 [  0   0   0  15 626   0  14]
 [  0   0   0   0   0 593   0]
 [  0   0   0   0   0   0 469]]
2025-01-29 16:46:32,748 - INFO - 
               precision    recall  f1-score   support

           1       1.00      1.00      1.00       586
           2       1.00      1.00      1.00       645
           3       1.00      1.00      1.00       534
           4       0.97      0.96      0.96       478
           5       0.97      0.96      0.96       655
           6       1.00      1.00      1.00       593
           7       0.97      1.00      0.99       469

    accuracy                           0.99      3960
   macro avg       0.99      0.99      0.99      3960
weighted avg       0.99      0.99      0.99      3960

2025-01-29 16:46:32,751 - INFO - numLayer1_hiddenSize128_seq_num80_gap5_accuracy91.52, total samples: 3982
2025-01-29 16:46:32,752 - INFO - 
 [[594   0   0   0   0   2   0]
 [  0 650   2   0   0   0   0]
 [  0   0 533   0   1   0   0]
 [  0   0  63 418   1   0   0]
 [  0   0   0   3 640  14   0]
 [  0   0   0   0   0 601   0]
 [  0   0   0   0   0   2 458]]
2025-01-29 16:46:32,758 - INFO - 
               precision    recall  f1-score   support

           1       1.00      1.00      1.00       596
           2       1.00      1.00      1.00       652
           3       0.89      1.00      0.94       534
           4       0.99      0.87      0.93       482
           5       1.00      0.97      0.99       657
           6       0.97      1.00      0.99       601
           7       1.00      1.00      1.00       460

    accuracy                           0.98      3982
   macro avg       0.98      0.98      0.98      3982
weighted avg       0.98      0.98      0.98      3982

2025-01-29 16:46:32,761 - INFO - numLayer1_hiddenSize128_seq_num100_gap5_accuracy91.61, total samples: 3977
2025-01-29 16:46:32,762 - INFO - 
 [[586   0   0   0   0   0   0]
 [  0 637   0   9   0   0   0]
 [  0   0 525   0   8   0   0]
 [  0   0   0 485   0   0   0]
 [  0   0   0  14 612  31   0]
 [  0   0   0   0   0 601   0]
 [  0   0   0   0   0   0 469]]
2025-01-29 16:46:32,768 - INFO - 
               precision    recall  f1-score   support

           1       1.00      1.00      1.00       586
           2       1.00      0.99      0.99       646
           3       1.00      0.98      0.99       533
           4       0.95      1.00      0.98       485
           5       0.99      0.93      0.96       657
           6       0.95      1.00      0.97       601
           7       1.00      1.00      1.00       469

    accuracy                           0.98      3977
   macro avg       0.98      0.99      0.99      3977
weighted avg       0.98      0.98      0.98      3977

-----------------------------------------------------------------------------------------------
2025-01-29 23:01:15,015 - INFO - trained model on franka_mindlab/trained_models/contact_localization/62/, tested on franka_mindlab, with 7 links

2025-01-29 23:06:24,304 - INFO - numLayer1_hiddenSize64_seq_num80_gap3_accuracy91.90, total samples: 5403
2025-01-29 23:06:24,305 - INFO - acuracy= 74.64371645382195, detection failure (links): [6.404494382022471, 55.136663524976434, 12.864864864864863, 17.97583081570997, 2.888086642599278, 26.53333333333333, 49.01960784313725]
2025-01-29 23:06:24,310 - INFO - numLayer1_hiddenSize64_seq_num100_gap3_accuracy91.12, total samples: 5371
2025-01-29 23:06:24,311 - INFO - acuracy= 76.50344442375722, detection failure (links): [8.51305334846765, 54.0719696969697, 2.2900763358778624, 14.43609022556391, 1.834862385321101, 21.265141318977122, 58.687943262411345]
2025-01-29 23:06:24,315 - INFO - numLayer1_hiddenSize64_seq_num80_gap5_accuracy91.90, total samples: 5405
2025-01-29 23:06:24,315 - INFO - acuracy= 74.65309898242369, detection failure (links): [6.509539842873176, 55.586854460093896, 4.7670639219935, 20.87745839636914, 1.8050541516245486, 30.120481927710845, 53.72340425531915]
2025-01-29 23:06:24,320 - INFO - numLayer1_hiddenSize64_seq_num100_gap5_accuracy91.86, total samples: 5372
2025-01-29 23:06:24,321 - INFO - acuracy= 74.55323901712583, detection failure (links): [6.583427922814983, 54.493850520340594, 12.391304347826088, 18.49624060150376, 0.0, 33.153638814016176, 44.40497335701599]
2025-01-29 23:06:24,326 - INFO - numLayer1_hiddenSize128_seq_num80_gap3_accuracy92.74, total samples: 5394
2025-01-29 23:06:24,326 - INFO - acuracy= 73.60029662588062, detection failure (links): [4.2792792792792795, 50.562851782363985, 18.85157096424702, 20.606060606060606, 2.914389799635701, 43.373493975903614, 35.115864527629235]
2025-01-29 23:06:24,331 - INFO - numLayer1_hiddenSize128_seq_num100_gap3_accuracy92.85, total samples: 5374
2025-01-29 23:06:24,331 - INFO - acuracy= 76.98176404912542, detection failure (links): [4.204545454545454, 54.6742209631728, 4.451682953311618, 17.44360902255639, 2.197802197802198, 30.364372469635626, 40.39145907473309]
2025-01-29 23:06:24,337 - INFO - numLayer1_hiddenSize128_seq_num80_gap5_accuracy89.53, total samples: 5400
2025-01-29 23:06:24,337 - INFO - acuracy= 75.27777777777777, detection failure (links): [11.473565804274466, 53.90404515522107, 7.034632034632035, 23.49397590361446, 1.9855595667870036, 26.675603217158177, 40.89285714285714]
2025-01-29 23:06:24,342 - INFO - numLayer1_hiddenSize128_seq_num100_gap5_accuracy87.94, total samples: 5371
2025-01-29 23:06:24,343 - INFO - acuracy= 73.67343139080246, detection failure (links): [15.454545454545453, 57.859848484848484, 8.49673202614379, 14.586466165413533, 1.6544117647058825, 29.110512129380055, 47.17314487632509]
2025-01-29 23:07:21,904 - INFO - trained model on ur5/trained_models/contact_localization/62/, tested on ur5, with 6 links
2025-01-29 23:09:43,899 - INFO - numLayer1_hiddenSize64_seq_num80_gap3_accuracy83.95, total samples: 4436
2025-01-29 23:09:43,900 - INFO - acuracy= 65.48692515779983, detection failure (links): [45.97902097902098, 14.008321775312066, 31.584158415841586, 38.496240601503764, 29.701492537313435, 49.24812030075188]
2025-01-29 23:09:43,904 - INFO - numLayer1_hiddenSize64_seq_num100_gap3_accuracy86.76, total samples: 4441
2025-01-29 23:09:43,905 - INFO - acuracy= 67.32717856338662, detection failure (links): [34.85113835376533, 12.07865168539326, 22.287968441814595, 33.28358208955224, 18.573551263001487, 73.90761548064918]
2025-01-29 23:09:43,908 - INFO - numLayer1_hiddenSize64_seq_num80_gap5_accuracy85.45, total samples: 4430
2025-01-29 23:09:43,909 - INFO - acuracy= 60.270880361173816, detection failure (links): [41.11498257839721, 24.896265560165975, 37.53723932472691, 34.24242424242424, 19.760479041916167, 76.19047619047619]
2025-01-29 23:09:43,913 - INFO - numLayer1_hiddenSize64_seq_num100_gap5_accuracy86.84, total samples: 4438
2025-01-29 23:09:43,914 - INFO - acuracy= 65.34474988733663, detection failure (links): [34.3804537521815, 25.0, 31.584158415841586, 41.91616766467065, 7.121661721068249, 64.41947565543072]
2025-01-29 23:09:43,918 - INFO - numLayer1_hiddenSize128_seq_num80_gap3_accuracy87.20, total samples: 4439
2025-01-29 23:09:43,918 - INFO - acuracy= 67.19981977922956, detection failure (links): [33.10104529616725, 18.81051175656985, 32.804757185332015, 42.04204204204204, 28.699551569506728, 40.97744360902256]
2025-01-29 23:09:43,922 - INFO - numLayer1_hiddenSize128_seq_num100_gap3_accuracy87.06, total samples: 4438
2025-01-29 23:09:43,923 - INFO - acuracy= 68.74718341595313, detection failure (links): [33.10104529616725, 15.988779803646564, 31.231527093596057, 33.28335832083958, 10.104011887072808, 59.798994974874375]
2025-01-29 23:09:43,926 - INFO - numLayer1_hiddenSize128_seq_num80_gap5_accuracy85.70, total samples: 4433
2025-01-29 23:09:43,927 - INFO - acuracy= 63.63636363636363, detection failure (links): [39.09249563699825, 17.265193370165747, 30.81510934393638, 42.46987951807229, 25.337331334332834, 62.828535669586984]
2025-01-29 23:09:43,931 - INFO - numLayer1_hiddenSize128_seq_num100_gap5_accuracy86.88, total samples: 4424
2025-01-29 23:09:43,932 - INFO - acuracy= 66.2748643761302, detection failure (links): [34.31542461005199, 13.661971830985916, 29.911154985192496, 40.0, 18.89055472263868, 63.38383838383839]
2025-01-29 23:09:43,966 - INFO - Fine-tuned source model with ur5, tested on ur5, with 6 links
2025-01-29 23:12:05,599 - INFO - numLayer1_hiddenSize64_seq_num80_gap3_accuracy85.79, total samples: 4427
2025-01-29 23:12:05,600 - INFO - acuracy= 61.44115653941721, detection failure (links): [38.13708260105449, 16.459197786998615, 23.781094527363184, 48.20359281437126, 41.14114114114114, 67.33668341708542]
2025-01-29 23:12:05,604 - INFO - numLayer1_hiddenSize64_seq_num100_gap3_accuracy83.28, total samples: 4427
2025-01-29 23:12:05,604 - INFO - acuracy= 67.6982154958211, detection failure (links): [48.257839721254356, 7.303370786516854, 17.82178217821782, 38.066465256797585, 15.970149253731345, 70.33792240300374]
2025-01-29 23:12:05,608 - INFO - numLayer1_hiddenSize64_seq_num80_gap5_accuracy89.67, total samples: 4435
2025-01-29 23:12:05,609 - INFO - acuracy= 63.63021420518602, detection failure (links): [23.076923076923077, 19.64038727524205, 39.366963402571706, 40.41916167664671, 36.5558912386707, 53.69211514392991]
2025-01-29 23:12:05,613 - INFO - numLayer1_hiddenSize64_seq_num100_gap5_accuracy86.63, total samples: 4436
2025-01-29 23:12:05,613 - INFO - acuracy= 63.72858431018936, detection failure (links): [34.44055944055944, 11.797752808988763, 26.279527559055115, 39.88005997001499, 26.37853949329359, 77.44360902255639]
2025-01-29 23:12:05,617 - INFO - numLayer1_hiddenSize128_seq_num80_gap3_accuracy88.09, total samples: 4431
2025-01-29 23:12:05,618 - INFO - acuracy= 65.5608214849921, detection failure (links): [29.86111111111111, 11.878453038674033, 30.434782608695656, 33.789954337899545, 21.6338880484115, 74.28214731585518]
2025-01-29 23:12:05,622 - INFO - numLayer1_hiddenSize128_seq_num100_gap3_accuracy88.77, total samples: 4435
2025-01-29 23:12:05,622 - INFO - acuracy= 70.2142051860203, detection failure (links): [26.5625, 7.854137447405329, 21.34387351778656, 42.00298953662182, 22.421524663677133, 58.417085427135675]
2025-01-29 23:12:05,626 - INFO - numLayer1_hiddenSize128_seq_num80_gap5_accuracy85.92, total samples: 4428
2025-01-29 23:12:05,626 - INFO - acuracy= 60.388437217705516, detection failure (links): [37.87085514834206, 14.107883817427386, 24.404761904761905, 51.057401812688816, 39.93993993993994, 73.49246231155779]
2025-01-29 23:12:05,630 - INFO - numLayer1_hiddenSize128_seq_num100_gap5_accuracy85.73, total samples: 4436
2025-01-29 23:12:05,631 - INFO - acuracy= 70.28854824165916, detection failure (links): [38.54166666666667, 10.970464135021098, 18.93491124260355, 31.09118086696562, 22.869955156950674, 58.34378920953576]
2025-01-29 23:13:05,482 - INFO - Fine-tuned source model with franka_mindlab, tested on franka_mindlab, with 7 links
2025-01-29 23:15:01,527 - INFO - numLayer1_hiddenSize64_seq_num80_gap3_accuracy91.11, total samples: 5406
2025-01-29 23:15:01,528 - INFO - acuracy= 74.91675915649279, detection failure (links): [8.305274971941639, 59.849198868991515, 12.51360174102285, 24.360902255639097, 1.0849909584086799, 22.31075697211155, 34.751773049645394]
2025-01-29 23:15:01,533 - INFO - numLayer1_hiddenSize64_seq_num100_gap3_accuracy93.15, total samples: 5364
2025-01-29 23:15:01,533 - INFO - acuracy= 81.972408650261, detection failure (links): [3.192702394526796, 52.55198487712666, 9.170305676855897, 8.283132530120483, 0.7339449541284404, 20.3778677462888, 15.808170515097691]
2025-01-29 23:15:01,538 - INFO - numLayer1_hiddenSize64_seq_num80_gap5_accuracy90.17, total samples: 5398
2025-01-29 23:15:01,538 - INFO - acuracy= 77.06557984438682, detection failure (links): [10.135135135135135, 48.30827067669173, 25.543478260869566, 15.19756838905775, 0.18018018018018017, 23.200000000000003, 22.02486678507993]
2025-01-29 23:15:01,543 - INFO - numLayer1_hiddenSize64_seq_num100_gap5_accuracy93.20, total samples: 5370
2025-01-29 23:15:01,544 - INFO - acuracy= 80.4096834264432, detection failure (links): [3.6281179138321997, 46.40151515151515, 18.566775244299674, 12.688821752265861, 0.0, 20.457604306864063, 21.92513368983957]
2025-01-29 23:15:01,549 - INFO - numLayer1_hiddenSize128_seq_num80_gap3_accuracy93.04, total samples: 5408
2025-01-29 23:15:01,549 - INFO - acuracy= 76.51627218934911, detection failure (links): [3.824521934758155, 59.47467166979362, 10.486486486486486, 21.18003025718608, 0.18083182640144665, 28.761651131824234, 26.287744227353464]
2025-01-29 23:15:01,554 - INFO - numLayer1_hiddenSize128_seq_num100_gap3_accuracy93.95, total samples: 5371
2025-01-29 23:15:01,554 - INFO - acuracy= 80.56227890523179, detection failure (links): [1.8202502844141069, 51.701323251417776, 10.326086956521738, 11.48036253776435, 0.0, 23.418573351278603, 24.156305506216697]
2025-01-29 23:15:01,559 - INFO - numLayer1_hiddenSize128_seq_num80_gap5_accuracy92.05, total samples: 5407
2025-01-29 23:15:01,560 - INFO - acuracy= 77.47364527464397, detection failure (links): [5.8558558558558556, 56.685499058380415, 17.44312026002167, 24.69879518072289, 2.338129496402878, 17.177097203728362, 17.2291296625222]
2025-01-29 23:15:01,564 - INFO - numLayer1_hiddenSize128_seq_num100_gap5_accuracy92.01, total samples: 5365
2025-01-29 23:15:01,565 - INFO - acuracy= 80.18639328984156, detection failure (links): [6.136363636363637, 53.74407582938389, 11.668484187568156, 8.132530120481928, 0.0, 18.16958277254374, 25.886524822695034]
2025-01-29 23:15:42,028 - INFO - trained model on franka_main/trained_models/contact_localization/62/, tested on ur5, with 6 links
2025-01-29 23:18:01,988 - INFO - numLayer1_hiddenSize64_seq_num80_gap3_accuracy91.68, total samples: 4414
2025-01-29 23:18:01,988 - INFO - acuracy= 25.2605346624377, detection failure (links): [96.48506151142355, 36.73184357541899, 89.87090367428004, 41.45234493192133, 86.03603603603604, 92.45283018867924]
2025-01-29 23:18:01,993 - INFO - numLayer1_hiddenSize64_seq_num100_gap3_accuracy80.91, total samples: 4425
2025-01-29 23:18:01,993 - INFO - acuracy= 24.293785310734464, detection failure (links): [74.3006993006993, 50.634696755994355, 90.91806515301086, 48.35329341317365, 88.28828828828829, 92.09535759096612]
2025-01-29 23:18:01,997 - INFO - numLayer1_hiddenSize64_seq_num80_gap5_accuracy91.13, total samples: 4425
2025-01-29 23:18:01,997 - INFO - acuracy= 24.112994350282484, detection failure (links): [78.7719298245614, 42.20055710306407, 77.02970297029704, 85.15742128935531, 87.96992481203007, 84.90566037735849]
2025-01-29 23:18:02,002 - INFO - numLayer1_hiddenSize64_seq_num100_gap5_accuracy91.85, total samples: 4424
2025-01-29 23:18:02,002 - INFO - acuracy= 25.678119349005424, detection failure (links): [92.84467713787086, 35.352112676056336, 92.1104536489152, 32.831325301204814, 92.05397301349325, 92.8391959798995]
2025-01-29 23:18:02,006 - INFO - numLayer1_hiddenSize128_seq_num80_gap3_accuracy91.60, total samples: 4425
2025-01-29 23:18:02,007 - INFO - acuracy= 19.774011299435028, detection failure (links): [94.03508771929825, 50.13927576601671, 93.87956564659427, 47.20965309200603, 100.0, 91.06918238993711]
2025-01-29 23:18:02,011 - INFO - numLayer1_hiddenSize128_seq_num100_gap3_accuracy91.61, total samples: 4424
2025-01-29 23:18:02,011 - INFO - acuracy= 25.49728752260398, detection failure (links): [85.28896672504378, 23.595505617977526, 88.50346878097126, 49.3993993993994, 92.99552906110283, 100.0]
2025-01-29 23:18:02,015 - INFO - numLayer1_hiddenSize128_seq_num80_gap5_accuracy91.52, total samples: 4435
2025-01-29 23:18:02,016 - INFO - acuracy= 22.728297632468998, detection failure (links): [92.13286713286713, 48.95688456189152, 84.95049504950495, 48.20359281437126, 90.92261904761905, 95.34005037783375]
2025-01-29 23:18:02,020 - INFO - numLayer1_hiddenSize128_seq_num100_gap5_accuracy91.61, total samples: 4424
2025-01-29 23:18:02,020 - INFO - acuracy= 21.609403254972875, detection failure (links): [87.23776223776224, 54.71167369901547, 96.53465346534654, 31.278195488721806, 93.59165424739196, 96.72955974842768]
2025-01-29 23:18:35,906 - INFO - trained model on franka_main/trained_models/contact_localization/62/, tested on franka_mindlab, with 7 links
2025-01-29 23:20:32,073 - INFO - numLayer1_hiddenSize64_seq_num80_gap3_accuracy91.68, total samples: 5390
2025-01-29 23:20:32,074 - INFO - acuracy= 45.250463821892396, detection failure (links): [89.20134983127109, 47.080979284369114, 52.44831338411316, 75.86726998491704, 30.505415162454874, 45.96774193548387, 28.980322003577818]
2025-01-29 23:20:32,079 - INFO - numLayer1_hiddenSize64_seq_num100_gap3_accuracy80.91, total samples: 5371
2025-01-29 23:20:32,079 - INFO - acuracy= 47.70061441072426, detection failure (links): [87.67123287671232, 54.0719696969697, 39.34782608695652, 85.36953242835595, 37.842778793418645, 17.362045760430686, 36.39575971731448]
2025-01-29 23:20:32,084 - INFO - numLayer1_hiddenSize64_seq_num80_gap5_accuracy91.13, total samples: 5401
2025-01-29 23:20:32,085 - INFO - acuracy= 48.472505091649694, detection failure (links): [88.61330326944757, 43.20754716981132, 49.0770901194354, 82.35294117647058, 34.77477477477478, 24.8, 28.67256637168142]
2025-01-29 23:20:32,089 - INFO - numLayer1_hiddenSize64_seq_num100_gap5_accuracy91.85, total samples: 5375
2025-01-29 23:20:32,090 - INFO - acuracy= 44.03720930232558, detection failure (links): [100.0, 64.87252124645893, 32.78688524590164, 83.08157099697885, 43.875685557586834, 14.516129032258066, 42.68077601410935]
2025-01-29 23:20:32,095 - INFO - numLayer1_hiddenSize128_seq_num80_gap3_accuracy91.60, total samples: 5408
2025-01-29 23:20:32,095 - INFO - acuracy= 39.84837278106509, detection failure (links): [96.05855855855856, 54.87804878048781, 43.44528710725894, 91.41566265060241, 49.82014388489209, 52.139037433155075, 24.866785079928952]
2025-01-29 23:20:32,100 - INFO - numLayer1_hiddenSize128_seq_num100_gap3_accuracy91.61, total samples: 5369
2025-01-29 23:20:32,100 - INFO - acuracy= 46.86161296330788, detection failure (links): [100.0, 62.630085146641434, 32.35294117647059, 78.796992481203, 28.807339449541285, 19.11170928667564, 34.16370106761566]
2025-01-29 23:20:32,105 - INFO - numLayer1_hiddenSize128_seq_num80_gap5_accuracy91.52, total samples: 5397
2025-01-29 23:20:32,105 - INFO - acuracy= 41.67129886974245, detection failure (links): [96.51293588301463, 73.6346516007533, 40.97826086956522, 83.55957767722474, 28.51985559566787, 39.6, 21.82468694096601]
2025-01-29 23:20:32,110 - INFO - numLayer1_hiddenSize128_seq_num100_gap5_accuracy91.61, total samples: 5366
2025-01-29 23:20:32,111 - INFO - acuracy= 42.69474468878121, detection failure (links): [86.47727272727272, 47.58293838862559, 46.673936750272624, 81.2688821752266, 67.52293577981652, 31.40161725067385, 43.36283185840708]


2025-01-29 23:21:23,421 - INFO - trained model on franka_main/trained_models/contact_localization/62/, tested on franka_main, with 7 links
2025-01-29 23:22:37,910 - INFO - numLayer1_hiddenSize64_seq_num80_gap3_accuracy91.68, total samples: 3968
2025-01-29 23:22:37,911 - INFO - acuracy= 97.25302419354838, detection failure (links): [0.0, 0.7763975155279503, 0.0, 1.0570824524312896, 15.160796324655438, 0.0, 0.0]
2025-01-29 23:22:37,915 - INFO - numLayer1_hiddenSize64_seq_num100_gap3_accuracy80.91, total samples: 3969
2025-01-29 23:22:37,915 - INFO - acuracy= 89.64474678760394, detection failure (links): [22.126929674099486, 0.0, 2.0599250936329585, 0.0, 41.56441717791411, 0.0, 0.0]
2025-01-29 23:22:37,918 - INFO - numLayer1_hiddenSize64_seq_num80_gap5_accuracy91.13, total samples: 3969
2025-01-29 23:22:37,919 - INFO - acuracy= 97.02695893172084, detection failure (links): [0.5059021922428331, 3.400309119010819, 0.0, 18.580375782881003, 0.0, 0.0, 0.8733624454148471]
2025-01-29 23:22:37,923 - INFO - numLayer1_hiddenSize64_seq_num100_gap5_accuracy91.85, total samples: 3976
2025-01-29 23:22:37,923 - INFO - acuracy= 99.01911468812877, detection failure (links): [0.0, 0.0, 0.0, 0.0, 3.1963470319634704, 3.005008347245409, 0.0]
2025-01-29 23:22:37,927 - INFO - numLayer1_hiddenSize128_seq_num80_gap3_accuracy91.60, total samples: 3981
2025-01-29 23:22:37,927 - INFO - acuracy= 98.49284099472494, detection failure (links): [0.0, 0.9188361408882083, 0.0, 5.439330543933055, 3.95738203957382, 0.0, 0.4319654427645789]
2025-01-29 23:22:37,931 - INFO - numLayer1_hiddenSize128_seq_num100_gap3_accuracy91.61, total samples: 3960
2025-01-29 23:22:37,931 - INFO - acuracy= 98.76262626262627, detection failure (links): [0.0, 0.0, 0.0, 4.184100418410042, 4.427480916030534, 0.0, 0.0]
2025-01-29 23:22:37,935 - INFO - numLayer1_hiddenSize128_seq_num80_gap5_accuracy91.52, total samples: 3982
2025-01-29 23:22:37,935 - INFO - acuracy= 97.79005524861878, detection failure (links): [0.33557046979865773, 0.3067484662576687, 0.18726591760299627, 13.278008298755188, 2.5875190258751903, 0.0, 0.43478260869565216]
2025-01-29 23:22:37,939 - INFO - numLayer1_hiddenSize128_seq_num100_gap5_accuracy91.61, total samples: 3977
2025-01-29 23:22:37,940 - INFO - acuracy= 98.44103595675132, detection failure (links): [0.0, 1.393188854489164, 1.5009380863039399, 0.0, 6.8493150684931505, 0.0, 0.0]
